<svg xmlns="http://www.w3.org/2000/svg" viewBox="0 0 100 100" fill="none">
  <defs>
    <linearGradient id="bg" x1="12" y1="12" x2="88" y2="88" gradientUnits="userSpaceOnUse">
      <stop stop-color="#FF1493"/>
      <stop offset="0.55" stop-color="#8B5CF6"/>
      <stop offset="1" stop-color="#00BFFF"/>
    </linearGradient>
    <linearGradient id="card" x1="40" y1="18" x2="76" y2="72" gradientUnits="userSpaceOnUse">
      <stop stop-color="white" stop-opacity="0.98"/>
      <stop offset="1" stop-color="white" stop-opacity="0.82"/>
    </linearGradient>
  </defs>
  <rect x="8" y="8" width="84" height="84" rx="24" fill="url(#bg)"/>
  <rect x="22" y="18" width="34" height="52" rx="11" fill="white" fill-opacity="0.14" stroke="white" stroke-opacity="0.32" stroke-width="2"/>
  <g transform="translate(6 0) rotate(7 62 46)">
    <rect x="40" y="14" width="38" height="58" rx="12" fill="url(#card)" stroke="white" stroke-opacity="0.8" stroke-width="1.25"/>
    <path d="M65 36C62.8 33.8 59.2 33.8 57 36L55.5 37.5L54 36C51.8 33.8 48.2 33.8 46 36C43.8 38.2 43.8 41.8 46 44L55.5 53.5L65 44C67.2 41.8 67.2 38.2 65 36Z" fill="#EC4899"/>
  </g>
</svg>
